<svg width="18" height="18" viewBox="0 0 18 18" fill="none" xmlns="http://www.w3.org/2000/svg">
<path fill-rule="evenodd" clip-rule="evenodd" d="M17 9C17 13.4183 13.4183 17 9 17C4.58172 17 1 13.4183 1 9C1 4.58172 4.58172 1 9 1C13.4183 1 17 4.58172 17 9ZM18 9C18 13.9706 13.9706 18 9 18C4.02944 18 0 13.9706 0 9C0 4.02944 4.02944 0 9 0C13.9706 0 18 4.02944 18 9ZM9.21118 13C11.4203 13 13.2112 11.2091 13.2112 9C13.2112 6.79086 11.4203 5 9.21118 5C7.00204 5 5.21118 6.79086 5.21118 9C5.21118 11.2091 7.00204 13 9.21118 13Z" fill="#EB5767"/>
</svg>
