<svg width="37" height="37" viewBox="0 0 37 37" fill="none" xmlns="http://www.w3.org/2000/svg">
<path d="M18.7166 36.0184C28.3212 36.0184 36.1073 28.0824 36.1073 18.2928C36.1073 8.50323 28.3212 0.5672 18.7166 0.5672C9.11199 0.5672 1.32593 8.50323 1.32593 18.2928C1.32593 28.0824 9.11199 36.0184 18.7166 36.0184Z" fill="#F4BB47"/>
<path d="M18.4523 32.6438C26.3742 32.6438 32.7962 26.0981 32.7962 18.0236C32.7962 9.94907 26.3742 3.40338 18.4523 3.40338C10.5304 3.40338 4.1084 9.94907 4.1084 18.0236C4.1084 26.0981 10.5304 32.6438 18.4523 32.6438Z" fill="#FFCB00"/>
<path fill-rule="evenodd" clip-rule="evenodd" d="M32.9744 28.5314C32.7067 29.0286 32.3883 29.4957 32.0246 29.9249L31.68 30.3356L31.29 30.7462L31.0894 30.9573L30.8807 31.1602C30.7351 31.2954 30.5911 31.434 30.4422 31.5708C29.8446 32.0958 29.215 32.5816 28.5572 33.0254C28.4051 33.1376 28.2433 33.2283 28.0928 33.3256C27.9423 33.4229 27.7951 33.5185 27.6495 33.6027C27.3582 33.7676 27.0961 33.9325 26.855 34.0628C26.6139 34.1931 26.4198 34.3135 26.2078 34.4338C25.9958 34.5542 25.7952 34.6565 25.5897 34.7538C21.9762 36.3711 17.9314 36.6914 14.1162 35.6625C11.638 35.0664 9.33666 33.8718 7.40619 32.1794C6.72368 31.6156 6.07274 31.0133 5.45645 30.3752C4.85438 29.7382 4.30659 29.0502 3.81899 28.3186C3.6491 28.0399 3.48568 27.776 3.34491 27.5039C3.20414 27.2318 3.06175 26.9712 2.92745 26.6958C2.04728 25.0073 1.42215 23.1931 1.07318 21.3144C1.00846 21.0077 1.01979 20.7174 0.968012 20.3892C0.911431 20.1511 0.867679 19.9099 0.836952 19.6669C0.477208 15.4683 1.56492 11.2732 3.91282 7.80391C6.26072 4.33464 9.72187 1.80829 13.7003 0.659834C15.2171 0.225531 16.7848 0.00360208 18.3603 0.000153431C20.5546 -0.0089903 22.7321 0.390632 24.7855 1.17933C28.8061 2.7445 32.1515 5.7126 34.2268 9.55563C35.3434 11.6294 36.0363 13.9121 36.2639 16.2662C36.2639 16.4625 36.2429 16.7049 36.2348 16.9523C36.2348 17.076 36.2234 17.1997 36.2186 17.3217C36.2137 17.4438 36.1927 17.5592 36.1781 17.6664C36.1199 18.0985 36.0422 18.3822 35.9144 18.2057C35.895 18.087 35.8772 17.9286 35.861 17.7373C35.8448 17.546 35.8351 17.325 35.806 17.0776C35.7769 16.8303 35.7655 16.5713 35.7251 16.2992C35.6846 16.0271 35.6571 15.7434 35.6086 15.4631C35.5601 15.1827 35.5131 14.899 35.4565 14.6286L35.2801 13.86C35.183 13.4882 35.0674 13.1216 34.9339 12.7617C34.5488 11.7507 34.2025 10.715 33.7074 9.78322C32.771 8.05123 31.5381 6.50406 30.0668 5.21493C28.6049 3.93984 26.9568 2.9049 25.182 2.14741C23.2927 1.3183 21.2725 0.842352 19.2179 0.742294C17.1149 0.655478 15.0157 0.991718 13.0402 1.73182C11.067 2.47067 9.23988 3.56438 7.64565 4.96096C6.39578 6.03133 5.29603 7.27157 4.37722 8.64692C3.63823 9.78406 3.03629 11.0078 2.58443 12.2917C2.1413 13.5766 1.84381 14.9091 1.69774 16.2629C1.61164 17.1451 1.58354 18.0322 1.61361 18.9182C1.61361 19.149 1.61361 19.3469 1.6217 19.5449C1.62081 19.7541 1.63053 19.9633 1.65082 20.1715C2.13285 24.4537 4.17192 28.3962 7.36574 31.2212C9.46392 33.0821 11.9725 34.3982 14.6777 35.0573C14.8928 35.1051 15.1048 35.1661 15.3249 35.204L15.9721 35.3244C16.184 35.3607 16.396 35.3838 16.6063 35.4151C16.7099 35.4283 16.8151 35.4465 16.9202 35.458L17.2341 35.486C18.0531 35.5664 18.8764 35.5896 19.6984 35.5553C20.2822 35.5385 20.8646 35.4873 21.4427 35.4019L21.9799 35.3013C22.1595 35.2667 22.3358 35.2156 22.517 35.171C22.8779 35.0886 23.2355 34.9649 23.5963 34.8528C24.3198 34.6027 25.0286 34.3103 25.7191 33.977C26.6947 33.5201 27.6269 32.9724 28.5038 32.341C29.3737 31.7144 30.1588 30.9735 30.8386 30.1377L31.1347 29.8474C31.2383 29.7336 31.3532 29.6099 31.4761 29.478C31.7269 29.2174 31.9761 28.8975 32.2431 28.5709C32.7403 27.9183 33.1794 27.2218 33.5553 26.4896C33.6686 26.2439 33.7673 25.9619 33.8789 25.665C33.9291 25.5117 33.9857 25.355 34.0504 25.1967C34.0828 25.1175 34.1184 25.0317 34.1572 24.9575C34.196 24.8833 34.23 24.7926 34.2705 24.7118C34.3271 24.6013 34.3012 24.8042 34.3918 24.5601C34.4224 24.3889 34.4635 24.2198 34.5148 24.0538C34.9285 22.8993 35.195 21.6954 35.3076 20.4717C35.3794 20.3054 35.4337 20.1318 35.4694 19.9539C35.5099 19.7477 35.5471 19.5168 35.5843 19.2942C35.649 18.8489 35.6863 18.4366 35.7817 18.3046C35.8966 18.1397 35.9937 18.3805 36.0633 18.8307C36.0794 18.9429 36.0972 19.0682 36.1069 19.2051C36.1167 19.342 36.1183 19.4838 36.1199 19.6356C36.1215 19.7873 36.1199 19.9473 36.1199 20.1089C36.1199 20.2705 36.0956 20.4387 36.0794 20.6036C36.0665 20.7389 36.0519 20.889 36.0277 21.0506C36.0034 21.2122 35.9678 21.3804 35.9338 21.5618C35.874 21.9263 35.7607 22.3155 35.6604 22.7278C35.4178 23.5633 35.1321 24.3852 34.8044 25.1901L34.4501 26.0411C34.3125 26.3297 34.1831 26.6364 34.0278 26.93C33.7418 27.5054 33.388 28.0431 32.9744 28.5314Z" fill="black"/>
<path fill-rule="evenodd" clip-rule="evenodd" d="M30.7532 26.4825C30.4668 27.1009 29.6675 28.1185 28.6675 29.0025C28.1719 29.4349 27.6499 29.8348 27.1045 30.1998C26.844 30.3729 26.59 30.5296 26.3537 30.6748C26.1175 30.8199 25.8942 30.9469 25.6952 31.0541C25.4962 31.1613 25.3376 31.2652 25.1693 31.3658C25.0011 31.4664 24.8296 31.5554 24.6613 31.6362C21.6732 32.9804 18.3251 33.2474 15.1683 32.3932C13.1138 31.9106 11.2069 30.9213 9.61518 29.5121C9.05059 29.0467 8.5105 28.5512 7.99715 28.0278C7.49544 27.503 7.03959 26.9346 6.63476 26.3291C6.49399 26.0965 6.3597 25.8772 6.24643 25.6513C6.13317 25.4253 6.01506 25.2093 5.90341 24.98C5.1746 23.582 4.65383 22.0813 4.35819 20.5272C4.30318 20.2732 4.31936 20.0324 4.27567 19.7587C4.2247 19.5627 4.18472 19.3639 4.15594 19.1633C4.00224 17.2146 4.22207 15.2541 4.80315 13.3911C5.09552 12.4075 5.48702 11.4575 5.97137 10.5561C7.20732 8.28227 8.99794 6.37193 11.1701 5.00981C13.4303 3.5999 16.0263 2.84814 18.6762 2.83616C20.4966 2.832 22.3024 3.16736 24.0044 3.82568C27.3314 5.13133 30.0992 7.59264 31.8195 10.7754C32.7442 12.4943 33.3162 14.3869 33.5006 16.3382C33.5006 16.5031 33.4731 16.7027 33.4634 16.9072C33.4634 17.0094 33.4472 17.1117 33.4407 17.2123C33.4343 17.3129 33.4132 17.4102 33.3987 17.4992C33.3388 17.8555 33.2595 18.0897 33.1333 17.9445C33.0589 17.5553 33.0233 16.6252 32.8663 15.6917C32.8226 15.4608 32.787 15.2283 32.7401 15.0056C32.6932 14.783 32.6398 14.5719 32.5945 14.374C32.5151 14.068 32.419 13.7669 32.3065 13.4719C31.9829 12.6473 31.7111 11.7848 31.3033 11.0179C30.534 9.5918 29.5164 8.32042 28.3002 7.26593C27.0943 6.22213 25.7375 5.37435 24.2778 4.75253C22.7263 4.06599 21.0661 3.6699 19.3768 3.58325C17.6468 3.51105 15.9201 3.79139 14.2978 4.40785C11.4156 5.52932 8.93375 7.51338 7.17842 10.0993C6.57165 11.0338 6.0773 12.0394 5.70601 13.0942C5.34538 14.1503 5.10329 15.2447 4.98437 16.3563C4.91554 17.0808 4.89338 17.8091 4.91803 18.5366C4.91803 18.7279 4.91803 18.8895 4.91803 19.0528C4.91445 19.2246 4.92093 19.3964 4.93745 19.5673C5.33608 23.0844 7.0145 26.3212 9.64107 28.638C11.3638 30.1621 13.422 31.2398 15.6407 31.7797C16.3269 31.951 17.0246 32.07 17.728 32.1359C18.4 32.2032 19.0757 32.2247 19.7506 32.2003C20.2303 32.1908 20.709 32.1517 21.1841 32.0832L21.6242 32.0007C21.7715 31.9727 21.9171 31.9298 22.066 31.8919C22.3621 31.8226 22.6549 31.7269 22.951 31.6263C23.5437 31.4172 24.1244 31.1744 24.6904 30.899C25.4912 30.5245 26.2565 30.0756 26.9767 29.5582C27.6909 29.047 28.3314 28.4364 28.8795 27.7441L29.1238 27.5083L29.407 27.2081C29.6141 26.9954 29.8212 26.7348 30.0412 26.4693C30.4586 25.9349 30.8248 25.3611 31.135 24.7558C31.2298 24.5315 31.3135 24.3025 31.3858 24.0697C31.4247 23.9427 31.4667 23.8141 31.5201 23.6838C31.546 23.6178 31.5751 23.5535 31.6075 23.4875C31.6399 23.4215 31.6674 23.3539 31.703 23.288C31.7386 23.222 31.7386 23.3671 31.8114 23.1659C31.8319 23.0242 31.8628 22.8841 31.9036 22.747C32.2455 21.8019 32.4631 20.8148 32.5508 19.8114C32.6225 19.6785 32.6769 19.5365 32.7126 19.3892C32.7515 19.2243 32.7854 19.0314 32.8194 18.8499C32.8793 18.4855 32.9165 18.1457 33.012 18.0385C33.1268 17.905 33.2239 18.0996 33.2951 18.4723C33.3113 18.5646 33.3291 18.6685 33.3404 18.7807C33.3517 18.8928 33.3566 19.0132 33.3598 19.1386C33.3631 19.2639 33.3598 19.3958 33.3598 19.5294C33.3598 19.663 33.3437 19.7982 33.3307 19.9335C33.3178 20.0687 33.3097 20.171 33.2886 20.3029L33.211 20.7267C33.1608 21.0269 33.0653 21.3501 32.9812 21.6899C32.7838 22.3644 32.5265 23.0802 32.266 23.7233C32.1722 23.9443 32.0751 24.1802 31.9764 24.4276C31.8777 24.6749 31.758 24.9223 31.6318 25.1664C31.3975 25.6429 31.1021 26.0855 30.7532 26.4825Z" fill="black"/>
<path fill-rule="evenodd" clip-rule="evenodd" d="M8.98954 13.7826C9.01381 14.0548 9.01866 14.4423 9.08662 14.8777C9.15683 15.3618 9.31896 15.8273 9.56394 16.2482C9.8317 16.6892 10.1845 17.0702 10.6011 17.368C10.9589 17.6267 11.3456 17.8409 11.7531 18.0063C12.0768 18.1316 12.3842 18.1844 12.6706 18.2718C13.3 18.4614 13.9456 18.6214 14.5815 18.7665C14.9161 18.8264 15.2472 18.9051 15.5733 19.0024C15.9213 19.1121 16.2493 19.2792 16.5441 19.4971C16.8431 19.7225 17.09 20.0118 17.2674 20.3448C17.4401 20.6818 17.5342 21.0549 17.5425 21.435C17.554 21.8072 17.4958 22.1783 17.371 22.5284C17.3096 22.6999 17.2332 22.8655 17.1428 23.0232C17.0516 23.186 16.9431 23.3381 16.8192 23.4767C16.7771 23.524 16.7335 23.5718 16.6882 23.6202C16.6404 23.6711 16.5896 23.719 16.5361 23.7636C16.4377 23.8498 16.3351 23.9307 16.2286 24.0061C16.1736 24.0457 16.1218 24.0819 16.0571 24.1199C15.9924 24.1578 15.939 24.1875 15.8824 24.2155C15.7675 24.2765 15.6494 24.3326 15.5296 24.3804C15.0373 24.5879 14.5091 24.6928 13.9763 24.6888C13.5744 24.6888 13.1751 24.6231 12.7935 24.4942C12.6063 24.4299 12.4231 24.3539 12.245 24.2667C12.1577 24.2238 12.0703 24.1792 11.9878 24.1331C11.8992 24.0828 11.8133 24.0278 11.7305 23.9681C11.5541 23.8461 11.3956 23.7191 11.2451 23.5888C11.0833 23.4517 10.9309 23.3034 10.7888 23.1452C10.5113 22.8261 10.2753 22.4719 10.0866 22.0913L10.572 22.2794C10.2095 22.469 9.84872 22.6537 9.48628 22.8203C9.1837 22.9621 8.89569 23.0677 8.61091 23.1864L8.80023 22.7626C8.80023 22.7461 8.80023 22.7626 8.80023 22.7857L8.8245 22.8417L8.88113 22.9654L8.98792 23.1732C9.0219 23.2375 9.05911 23.3035 9.09794 23.3695C9.17723 23.4998 9.25975 23.6284 9.35198 23.7571L9.49113 23.95C9.53481 24.0094 9.57851 24.0622 9.62866 24.1149C9.72736 24.2304 9.83577 24.3442 9.95227 24.4563C10.0089 24.5124 10.0639 24.5685 10.1141 24.6212L10.2888 24.7647C10.4037 24.862 10.5186 24.956 10.6318 25.05C10.8576 25.2134 11.0957 25.3585 11.3438 25.4838C11.5079 25.5853 11.6781 25.6762 11.8535 25.7559C12.0023 25.807 12.1334 25.8004 12.2968 25.8515C12.9875 26.0597 13.7093 26.1396 14.4278 26.0874C15.1467 26.0351 15.849 25.8414 16.4956 25.5168C16.6089 25.459 16.7189 25.398 16.8192 25.332L16.981 25.2265C17.0279 25.1952 17.0765 25.1589 17.125 25.1226C17.3277 24.9596 17.5222 24.7862 17.7075 24.6031L17.6832 24.6278C17.843 24.4537 17.9901 24.2679 18.1234 24.072C18.6345 23.3144 18.9025 22.4138 18.8903 21.4943C18.8879 20.7901 18.6977 20.0998 18.3402 19.4971C18.2803 19.3965 18.2123 19.2893 18.1492 19.2003L18.1007 19.1327L18.0522 19.0716C18.0133 19.0255 17.9745 18.9809 17.934 18.9364C17.8548 18.8474 17.7722 18.7616 17.6832 18.6775C17.6018 18.5979 17.5164 18.5225 17.4276 18.4515C17.2356 18.3046 17.0339 18.1713 16.8241 18.0524C16.7259 17.9954 16.6249 17.9437 16.5215 17.8974C16.4136 17.8501 16.3004 17.8056 16.1817 17.7638C16.0652 17.7209 15.9455 17.6814 15.8257 17.6434L15.6639 17.594L15.4843 17.5544C14.9585 17.434 14.4358 17.3054 13.9181 17.1586C13.3966 17.0142 12.8834 16.8402 12.3809 16.6374C12.0376 16.5007 11.7117 16.3224 11.4101 16.1064L11.3001 16.0206L11.1933 15.9349C11.1101 15.8656 11.0323 15.7901 10.9603 15.7089C10.8134 15.5408 10.6977 15.3469 10.6189 15.1366C10.5464 14.9398 10.5033 14.733 10.4911 14.5231C10.4911 14.4225 10.4911 14.3236 10.4911 14.2494C10.4927 14.1551 10.4992 14.0609 10.5105 13.9673C10.5551 13.6121 10.6649 13.2686 10.8341 12.9547L10.8147 12.9993C10.887 12.8337 10.9818 12.6794 11.0962 12.5408C11.1836 12.4286 11.258 12.3363 11.347 12.2472L11.3632 12.2307C11.6668 11.9439 12.0172 11.7134 12.3987 11.5496C12.7499 11.4025 13.1198 11.3069 13.4974 11.2659C13.8459 11.228 14.1974 11.228 14.5459 11.2659C14.8853 11.3032 15.2183 11.3864 15.5361 11.5133C15.9286 11.6701 16.2923 11.8931 16.6121 12.173C16.693 12.2439 16.7739 12.3148 16.8435 12.394C16.9199 12.4692 16.9918 12.5491 17.0587 12.6331C17.1234 12.7123 17.1881 12.7981 17.2528 12.8838C17.328 12.9867 17.3925 13.0973 17.4454 13.2137L16.8969 13.0108L18.8385 12.0345L18.6638 12.5985C18.6007 12.4946 18.5392 12.3891 18.4745 12.2852L18.3806 12.1202C18.3466 12.0675 18.3159 12.0246 18.2803 11.9751C18.1379 11.7838 17.9696 11.5875 17.7949 11.3962L17.8175 11.4193C17.6331 11.2445 17.4373 11.0614 17.2609 10.9246C17.0609 10.7717 16.8523 10.6308 16.6364 10.5024C16.422 10.3799 16.1992 10.2735 15.9697 10.1841C15.7364 10.0921 15.4975 10.0155 15.2546 9.95484C14.9811 9.83485 14.6986 9.73723 14.41 9.66292C14.1365 9.58376 13.9359 9.498 14.0588 9.37596C14.3161 9.32864 14.5786 9.31809 14.8387 9.34463C15.2191 9.37691 15.5944 9.45496 15.9568 9.57716C16.3237 9.69761 16.6773 9.8568 17.0118 10.0521C17.3111 10.2302 17.5425 10.3935 17.6962 10.4941C17.8887 10.6312 18.07 10.784 18.2382 10.951V10.9592C18.4127 11.1581 18.5749 11.368 18.7236 11.5875C18.7987 11.6977 18.8673 11.8122 18.9291 11.9306C18.9922 12.046 19.0553 12.1598 19.1217 12.2703L19.1443 12.3082L19.2333 12.4583L19.0715 12.5375C18.4162 12.8673 17.7771 13.1972 17.1299 13.527L16.9681 13.6095L16.8823 13.4446C16.7677 13.2481 16.6297 13.067 16.4713 12.9053C16.311 12.7382 16.1342 12.5885 15.9439 12.4583C15.5661 12.2001 15.1366 12.031 14.6866 11.9636C14.2349 11.9019 13.7763 11.9164 13.3291 12.0064C12.8887 12.0903 12.472 12.2728 12.1091 12.5408C12.0162 12.61 11.9271 12.6843 11.8421 12.7634L11.8567 12.7486C11.7742 12.8377 11.6949 12.9283 11.6253 13.0191C11.5617 13.0969 11.5073 13.1821 11.4635 13.273L11.4538 13.2945C11.3371 13.5061 11.2566 13.7364 11.216 13.9756C11.196 14.0971 11.1863 14.2202 11.1868 14.3434C11.1841 14.4606 11.1939 14.5779 11.216 14.693C11.2589 14.9153 11.3673 15.1189 11.5266 15.2768C11.6152 15.36 11.7087 15.4377 11.8065 15.5094C11.9043 15.5821 12.0071 15.6477 12.114 15.7056C12.4315 15.8734 12.7628 16.0124 13.1042 16.1212C13.4472 16.2367 13.7967 16.3356 14.1462 16.4263C14.4957 16.517 14.8501 16.5912 15.2028 16.6721L15.7368 16.7809C15.9309 16.8188 16.1073 16.8766 16.2869 16.9293C16.4665 16.9821 16.6445 17.0464 16.8208 17.1173C17.0014 17.1908 17.177 17.2762 17.3467 17.373C17.5136 17.4672 17.6756 17.5701 17.8321 17.6814C17.9159 17.7376 17.9964 17.7987 18.0732 17.8644C18.1476 17.9271 18.2204 17.9914 18.2916 18.059C18.4352 18.193 18.5713 18.3351 18.6994 18.4845C18.8298 18.64 18.9482 18.8054 19.0537 18.9793C19.2689 19.3238 19.4381 19.6959 19.5569 20.0859C19.7336 20.6874 19.7919 21.3184 19.7284 21.9429C19.6667 22.5648 19.4974 23.1706 19.2285 23.7323C19.1046 23.9938 18.9629 24.2462 18.8045 24.4876C18.6397 24.7321 18.4551 24.9621 18.2528 25.1754L18.2415 25.1853C17.9891 25.4318 17.7186 25.6584 17.4324 25.8631C17.1366 26.0598 16.8242 26.2293 16.4988 26.3694C15.8521 26.6523 15.1647 26.8266 14.4634 26.8856C14.1404 26.9127 13.8161 26.9171 13.4925 26.8988C13.1696 26.8813 12.8489 26.8332 12.5347 26.7553C12.2415 26.6647 11.9545 26.5545 11.6755 26.4255C11.2186 26.2402 10.7815 26.0076 10.3713 25.7311C10.3196 25.6949 10.2645 25.6602 10.2095 25.6207L10.0639 25.4986L9.77752 25.2545C9.67936 25.1762 9.58589 25.0919 9.4976 25.0022C9.41347 24.9164 9.33579 24.8373 9.2468 24.74C9.11975 24.6033 9.00089 24.4591 8.89084 24.3079C8.78729 24.166 8.68696 24.0209 8.5915 23.8725C8.49603 23.7241 8.40542 23.5723 8.32776 23.4206C8.29054 23.348 8.25171 23.2755 8.21611 23.2029L8.15949 23.0908L8.13198 23.0281C8.12227 23.0034 8.11256 22.9836 8.09638 22.9324L8.00415 22.6372L8.28893 22.4987L10.2306 21.557L10.5736 21.3921L10.7354 21.7533C10.8655 22.0306 11.0238 22.2931 11.2079 22.5366C11.2927 22.6542 11.3869 22.7645 11.4894 22.8665L11.5687 22.9473L11.6447 23.0149L11.8195 23.165C11.9284 23.2572 12.0436 23.3415 12.1641 23.4173C12.211 23.447 12.2822 23.4833 12.347 23.5179C12.4117 23.5525 12.4764 23.5806 12.5427 23.6103C12.8043 23.7254 13.0787 23.8074 13.3599 23.8543C13.4997 23.8764 13.6407 23.8902 13.7822 23.8956C13.855 23.8956 13.9197 23.8956 14.0022 23.8956C14.0847 23.8956 14.1446 23.8956 14.2158 23.8956C14.5004 23.8771 14.7815 23.8216 15.0523 23.7307C15.1896 23.6835 15.3241 23.6284 15.4552 23.5657C15.5183 23.5361 15.5895 23.4998 15.6461 23.4684L15.6914 23.4453L15.7287 23.4223L15.8144 23.3645C15.8727 23.325 15.9293 23.2804 15.9859 23.2359C16.0426 23.1914 16.1105 23.132 16.138 23.104C16.2379 23.0004 16.3309 22.8903 16.4163 22.7741L16.4681 22.6966C16.4846 22.6716 16.4997 22.6458 16.5134 22.6191C16.5474 22.5614 16.5765 22.5003 16.6056 22.441C16.6602 22.3214 16.7061 22.1979 16.7432 22.0716C16.8131 21.8265 16.841 21.571 16.8257 21.3162C16.8152 21.0736 16.7562 20.8358 16.6521 20.6174C16.548 20.399 16.4011 20.2047 16.2205 20.0463C16.1604 19.9866 16.0961 19.9315 16.028 19.8814C15.9477 19.8222 15.8646 19.7671 15.7788 19.7165C15.6213 19.627 15.4548 19.5551 15.2821 19.5021C15.0446 19.4318 14.803 19.3767 14.5588 19.3372C14.2935 19.286 14.0313 19.23 13.7692 19.1722C13.2326 19.0611 12.7022 18.9207 12.1803 18.7517C11.8022 18.6266 11.4334 18.4739 11.0768 18.2949C10.7178 18.1142 10.3751 17.9017 10.0526 17.6599C9.3734 17.1514 8.83855 16.4686 8.50251 15.6809C8.47214 15.5724 8.44783 15.4623 8.42969 15.351C8.40378 15.2191 8.38488 15.0859 8.37307 14.9519C8.34782 14.6435 8.34782 14.3335 8.37307 14.0251C8.42566 13.3884 8.57749 12.7643 8.82288 12.1763C8.98468 11.797 9.09471 11.2791 9.53158 10.8734C9.60277 10.8108 9.53158 10.9559 9.6675 10.8058C9.72951 10.6852 9.80795 10.5742 9.90049 10.476C9.97492 10.4051 10.0526 10.3325 10.1367 10.2632C10.1756 10.2286 10.2273 10.1857 10.271 10.1527L10.4021 10.0554C10.5879 9.91608 10.7807 9.78671 10.9797 9.66787C11.1938 9.5438 11.4154 9.43364 11.6431 9.33802C11.7564 9.2902 11.8696 9.24403 11.9829 9.20115C12.0962 9.15827 12.2224 9.11374 12.3356 9.07581C12.6379 9.09587 12.9411 9.09587 13.2434 9.07581C13.567 9.07581 13.8744 9.10879 13.9682 9.1995C14.0621 9.2902 13.9116 9.41225 13.622 9.5112C13.3323 9.61015 12.9197 9.72559 12.5169 9.85588C12.0739 9.98113 11.6445 10.1519 11.2354 10.3655C10.99 10.5045 10.7553 10.6622 10.5331 10.8372C10.3156 11.0168 10.1172 11.2191 9.94094 11.4408C9.69459 11.773 9.49625 12.1396 9.35198 12.5292C9.20635 12.9844 9.09957 13.4 8.98954 13.7826Z" fill="black"/>
<path fill-rule="evenodd" clip-rule="evenodd" d="M22.7939 23.5129C22.7583 22.9522 23.4411 21.6658 23.6385 20.9896C23.6839 20.8247 23.6838 20.673 23.7243 20.5344C24.0867 19.3223 24.501 18.148 24.9071 16.9655C25.0543 16.5368 25.1546 16.0865 25.3051 15.6462C25.4152 15.3163 25.5802 14.9865 25.6805 14.6715C25.8423 14.1355 25.9297 13.5632 26.1109 13.052C26.1789 12.859 26.2824 12.7007 26.3439 12.5193C26.5397 11.9553 26.7144 11.3368 26.8665 10.8058C26.894 10.7118 26.9588 10.6408 26.983 10.5386C27.0073 10.4363 26.9733 10.3852 26.9976 10.3011C27.0413 10.1642 27.085 10.0257 27.1319 9.88716L27.5526 10.4908L26.2581 10.4825L26.6724 10.1824C26.6254 10.3225 26.5801 10.4627 26.5348 10.6013C26.4248 10.9575 26.3277 11.3269 26.2112 11.6798C25.6886 13.3587 25.0543 15.3081 24.365 17.0892C23.8683 18.3789 23.3651 19.6653 22.9476 20.7851C22.4622 22.0847 22.0108 23.4123 21.4688 24.8323C21.2908 25.1225 21.0594 25.6272 20.896 25.6668C20.8798 25.459 21.3118 24.3029 21.3636 24.0275C21.4665 23.6807 21.5891 23.3404 21.7309 23.0082C22.1613 21.7779 22.4088 20.635 22.8263 19.3932C23.0528 18.7335 23.3344 18.0623 23.556 17.4257C24.0269 16.0865 24.3133 14.7869 24.7404 13.4198C24.9022 12.8953 25.119 12.3791 25.2986 11.8579C25.5187 11.2164 25.7177 10.5683 25.9216 9.92013L25.996 9.68595H26.2517L26.8989 9.67275L27.5461 9.65626L28.0784 9.64307L27.9021 10.1675C27.8762 10.245 27.8535 10.3093 27.8309 10.3654C27.7775 10.5073 27.7014 10.5947 27.6513 10.7348C27.5073 11.1389 27.3794 11.5858 27.2435 11.9998C26.619 13.898 26.1433 15.5373 25.5203 17.3366C25.3278 17.8957 25.1288 18.4102 24.9217 18.9083C24.8521 19.0732 24.7388 19.2942 24.6887 19.441C24.5269 19.8929 24.4395 20.4008 24.2825 20.8874C24.0609 21.5817 23.7567 22.2067 23.6822 22.939C23.4498 23.3865 23.2575 23.8546 23.1078 24.3375C23.0641 24.5024 23.145 24.763 22.9978 24.9675C22.9719 25.0005 22.9476 24.923 22.9234 25.0054C22.9137 25.0417 22.9606 25.0829 22.9234 25.1868C22.8619 25.3715 22.7875 25.581 22.7195 25.8053L22.6143 26.145L22.2373 26.1549C21.9979 26.1549 21.7373 26.1549 21.4671 26.1549C21.2908 25.957 20.752 25.8845 20.8086 25.7674C20.8442 25.6948 21.0125 25.6453 21.205 25.5843C21.3976 25.5233 21.6111 25.4524 21.7859 25.4194C21.9357 25.3989 22.0875 25.3989 22.2373 25.4194L22.027 25.5728C22.1435 25.299 22.2859 24.9807 22.383 24.6838C22.5075 24.3095 22.5415 23.8262 22.7939 23.5129Z" fill="black"/>
</svg>
