<svg width="53" height="43" viewBox="0 0 53 43" fill="none" xmlns="http://www.w3.org/2000/svg">
<path d="M18.048 36.0184C27.7066 36.0184 35.5364 28.0824 35.5364 18.2928C35.5364 8.50322 27.7066 0.5672 18.048 0.5672C8.38941 0.5672 0.55957 8.50322 0.55957 18.2928C0.55957 28.0824 8.38941 36.0184 18.048 36.0184Z" fill="#F4BB47"/>
<path d="M17.7822 32.6438C25.7486 32.6438 32.2067 26.0981 32.2067 18.0236C32.2067 9.94912 25.7486 3.40344 17.7822 3.40344C9.81574 3.40344 3.35767 9.94912 3.35767 18.0236C3.35767 26.0981 9.81574 32.6438 17.7822 32.6438Z" fill="#FFCB00"/>
<path fill-rule="evenodd" clip-rule="evenodd" d="M32.386 28.5313C32.1167 29.0286 31.7966 29.4957 31.4308 29.9249L31.0843 30.3356L30.6921 30.7462L30.4904 30.9573L30.2804 31.1602C30.134 31.2954 29.9892 31.4339 29.8395 31.5708C29.2386 32.0958 28.6054 32.5816 27.9439 33.0254C27.7909 33.1376 27.6282 33.2283 27.4769 33.3256C27.3256 33.4229 27.1775 33.5185 27.0311 33.6026C26.7382 33.7676 26.4746 33.9325 26.2321 34.0628C25.9897 34.1931 25.7944 34.3134 25.5813 34.4338C25.3681 34.5542 25.1664 34.6565 24.9597 34.7538C21.3259 36.3711 17.2584 36.6914 13.4217 35.6625C10.9295 35.0664 8.6153 33.8718 6.67397 32.1794C5.98763 31.6156 5.33303 31.0133 4.71327 30.3752C4.10782 29.7382 3.55695 29.0502 3.06661 28.3186C2.89576 28.0399 2.73142 27.776 2.58986 27.5039C2.4483 27.2318 2.30511 26.9712 2.17006 26.6958C1.28494 25.0073 0.656292 23.1931 0.30536 21.3144C0.240274 21.0077 0.251665 20.7174 0.199597 20.3892C0.142698 20.1511 0.0986996 19.9099 0.0677995 19.6669C-0.293967 15.4683 0.799862 11.2732 3.16096 7.80391C5.52206 4.33464 9.00267 1.80829 13.0035 0.659834C14.5288 0.225531 16.1053 0.00360208 17.6897 0.000153431C19.8964 -0.0089903 22.0861 0.390631 24.151 1.17933C28.1942 2.7445 31.5584 5.7126 33.6454 9.55563C34.7682 11.6294 35.4651 13.9121 35.6939 16.2662C35.6939 16.4625 35.6728 16.7049 35.6646 16.9523C35.6646 17.076 35.6533 17.1997 35.6484 17.3217C35.6435 17.4438 35.6223 17.5592 35.6077 17.6664C35.5491 18.0985 35.471 18.3822 35.3425 18.2057C35.3229 18.087 35.305 17.9286 35.2888 17.7373C35.2725 17.546 35.2627 17.325 35.2334 17.0776C35.2042 16.8303 35.1928 16.5713 35.1521 16.2992C35.1114 16.0271 35.0838 15.7434 35.0349 15.4631C34.9861 15.1827 34.9389 14.899 34.882 14.6286L34.7046 13.86C34.607 13.4882 34.4907 13.1216 34.3564 12.7617C33.9692 11.7507 33.621 10.715 33.1231 9.78322C32.1814 8.05123 30.9415 6.50406 29.462 5.21493C27.9918 3.93984 26.3345 2.9049 24.5497 2.14741C22.6498 1.3183 20.6182 0.842352 18.5521 0.742294C16.4372 0.655478 14.3263 0.991718 12.3397 1.73182C10.3554 2.47067 8.51797 3.56438 6.91478 4.96096C5.65788 6.03133 4.55195 7.27157 3.62797 8.64692C2.88482 9.78406 2.27951 11.0078 1.8251 12.2917C1.37948 13.5766 1.08031 14.909 0.933432 16.2629C0.846847 17.1451 0.818582 18.0322 0.848823 18.9182C0.848823 19.149 0.848826 19.3469 0.856961 19.5448C0.856069 19.7541 0.865843 19.9633 0.886248 20.1715C1.37099 24.4537 3.42152 28.3962 6.63329 31.2212C8.74327 33.0821 11.266 34.3982 13.9863 35.0572C14.2027 35.1051 14.4159 35.1661 14.6372 35.204L15.288 35.3244C15.5012 35.3607 15.7143 35.3838 15.9259 35.4151C16.03 35.4283 16.1358 35.4465 16.2415 35.458L16.5572 35.486C17.3807 35.5664 18.2087 35.5896 19.0353 35.5553C19.6224 35.5385 20.2081 35.4873 20.7894 35.4019L21.3296 35.3013C21.5102 35.2667 21.6876 35.2156 21.8698 35.171C22.2326 35.0886 22.5922 34.9649 22.9551 34.8527C23.6827 34.6026 24.3955 34.3103 25.0899 33.977C26.071 33.5201 27.0084 32.9724 27.8902 32.341C28.765 31.7144 29.5545 30.9735 30.2382 30.1377L30.5359 29.8474C30.64 29.7336 30.7556 29.6099 30.8792 29.478C31.1314 29.2174 31.382 28.8975 31.6505 28.5709C32.1505 27.9183 32.5921 27.2218 32.9701 26.4896C33.084 26.2439 33.1833 25.9619 33.2955 25.665C33.346 25.5117 33.4029 25.355 33.468 25.1967C33.5006 25.1175 33.5363 25.0317 33.5754 24.9575C33.6144 24.8833 33.6486 24.7926 33.6893 24.7118C33.7463 24.6013 33.7202 24.8041 33.8113 24.5601C33.8421 24.3888 33.8834 24.2197 33.935 24.0538C34.351 22.8993 34.619 21.6954 34.7323 20.4717C34.8045 20.3054 34.859 20.1318 34.895 19.9538C34.9357 19.7477 34.9731 19.5168 35.0105 19.2942C35.0756 18.8489 35.113 18.4366 35.209 18.3046C35.3246 18.1397 35.4222 18.3805 35.4922 18.8307C35.5084 18.9429 35.5263 19.0682 35.5361 19.2051C35.5459 19.342 35.5475 19.4838 35.5491 19.6356C35.5507 19.7873 35.5491 19.9473 35.5491 20.1089C35.5491 20.2705 35.5247 20.4387 35.5084 20.6036C35.4954 20.7389 35.4808 20.889 35.4564 21.0506C35.432 21.2122 35.3962 21.3804 35.362 21.5618C35.3018 21.9263 35.1879 22.3155 35.087 22.7278C34.8431 23.5633 34.5557 24.3852 34.2262 25.1901L33.8699 26.0411C33.7316 26.3297 33.6014 26.6364 33.4452 26.93C33.1576 27.5054 32.8019 28.0431 32.386 28.5313Z" fill="black"/>
<path fill-rule="evenodd" clip-rule="evenodd" d="M30.1522 26.4825C29.8642 27.101 29.0604 28.1185 28.0549 29.0025C27.5565 29.435 27.0315 29.8349 26.4831 30.1998C26.2211 30.373 25.9656 30.5297 25.7281 30.6748C25.4905 30.8199 25.266 30.9469 25.0658 31.0541C24.8657 31.1613 24.7062 31.2652 24.537 31.3658C24.3678 31.4664 24.1953 31.5555 24.0261 31.6363C21.0212 32.9804 17.6543 33.2474 14.4797 32.3933C12.4137 31.9107 10.4961 30.9214 8.89541 29.5121C8.32764 29.0467 7.78451 28.5513 7.26828 28.0278C6.76375 27.503 6.30533 26.9347 5.89823 26.3291C5.75667 26.0966 5.62162 25.8773 5.50772 25.6513C5.39382 25.4254 5.27504 25.2093 5.16277 24.9801C4.42986 23.5821 3.90616 22.0814 3.60886 20.5272C3.55354 20.2732 3.56981 20.0325 3.52588 19.7587C3.47462 19.5627 3.43442 19.3639 3.40547 19.1633C3.25091 17.2147 3.47197 15.2542 4.05632 13.3911C4.35034 12.4075 4.74403 11.4575 5.23111 10.5561C6.474 8.28228 8.27469 6.37194 10.4591 5.00982C12.732 3.5999 15.3426 2.84814 18.0073 2.83616C19.838 2.832 21.6539 3.16736 23.3655 3.82568C26.7112 5.13133 29.4946 7.59265 31.2245 10.7754C32.1545 12.4943 32.7297 14.3869 32.9151 16.3382C32.9151 16.5032 32.8874 16.7027 32.8777 16.9072C32.8777 17.0095 32.8614 17.1117 32.8549 17.2123C32.8484 17.3129 32.8272 17.4102 32.8126 17.4993C32.7524 17.8555 32.6727 18.0897 32.5457 17.9446C32.4709 17.5554 32.4351 16.6252 32.2773 15.6917C32.2333 15.4609 32.1975 15.2283 32.1503 15.0057C32.1032 14.783 32.0495 14.5719 32.0039 14.374C31.9241 14.0681 31.8274 13.7669 31.7143 13.4719C31.3889 12.6473 31.1155 11.7848 30.7055 11.0179C29.9318 9.59182 28.9085 8.32044 27.6855 7.26594C26.4728 6.22214 25.1084 5.37436 23.6405 4.75254C22.0802 4.06599 20.4107 3.6699 18.7119 3.58325C16.9722 3.51105 15.2358 3.79139 13.6043 4.40786C10.7059 5.52933 8.21014 7.51339 6.44495 10.0993C5.83477 11.0339 5.33764 12.0394 4.96426 13.0942C4.6016 14.1504 4.35815 15.2447 4.23856 16.3564C4.16935 17.0809 4.14706 17.8092 4.17185 18.5366C4.17185 18.7279 4.17185 18.8896 4.17185 19.0528C4.16824 19.2246 4.17476 19.3964 4.19137 19.5674C4.59225 23.0845 6.28011 26.3212 8.92144 28.638C10.6538 30.1621 12.7236 31.2399 14.9548 31.7798C15.6448 31.951 16.3464 32.0701 17.0538 32.136C17.7296 32.2033 18.4091 32.2247 19.0878 32.2003C19.5702 32.1908 20.0516 32.1517 20.5294 32.0832L20.972 32.0008C21.12 31.9727 21.2665 31.9299 21.4162 31.8919C21.7139 31.8227 22.0084 31.727 22.3062 31.6264C22.9022 31.4173 23.4862 31.1745 24.0554 30.8991C24.8607 30.5245 25.6303 30.0757 26.3545 29.5583C27.0728 29.0471 27.7169 28.4364 28.268 27.7442L28.5137 27.5083L28.7985 27.2082C29.0067 26.9954 29.215 26.7349 29.4363 26.4693C29.856 25.935 30.2243 25.3612 30.5362 24.7558C30.6316 24.5315 30.7157 24.3025 30.7884 24.0697C30.8275 23.9427 30.8698 23.8141 30.9235 23.6838C30.9495 23.6178 30.9788 23.5535 31.0114 23.4876C31.0439 23.4216 31.0716 23.354 31.1074 23.288C31.1432 23.222 31.1432 23.3672 31.2164 23.166C31.2371 23.0242 31.2681 22.8842 31.3091 22.7471C31.653 21.8019 31.8718 20.8148 31.96 19.8115C32.0321 19.6785 32.0868 19.5366 32.1227 19.3893C32.1617 19.2244 32.1959 19.0314 32.2301 18.85C32.2903 18.4855 32.3277 18.1458 32.4237 18.0386C32.5392 17.905 32.6369 18.0996 32.7085 18.4723C32.7247 18.5647 32.7426 18.6686 32.754 18.7807C32.7654 18.8929 32.7703 19.0133 32.7735 19.1386C32.7768 19.2639 32.7735 19.3959 32.7735 19.5295C32.7735 19.663 32.7573 19.7983 32.7443 19.9335C32.7312 20.0687 32.7231 20.171 32.7019 20.3029L32.6238 20.7268C32.5734 21.0269 32.4774 21.3502 32.3928 21.6899C32.1943 22.3644 31.9356 23.0802 31.6736 23.7234C31.5792 23.9444 31.4816 24.1802 31.3823 24.4276C31.2831 24.675 31.1627 24.9224 31.0358 25.1665C30.8002 25.6429 30.5031 26.0855 30.1522 26.4825Z" fill="black"/>
<path fill-rule="evenodd" clip-rule="evenodd" d="M8.26656 13.7826C8.29097 14.0548 8.29584 14.4423 8.36418 14.8777C8.43479 15.3618 8.59784 15.8273 8.84419 16.2482C9.11345 16.6892 9.46829 17.0702 9.88717 17.368C10.2469 17.6267 10.6359 17.8409 11.0457 18.0063C11.3711 18.1316 11.6803 18.1844 11.9683 18.2718C12.6012 18.4614 13.2505 18.6214 13.8899 18.7665C14.2264 18.8264 14.5594 18.9051 14.8873 19.0024C15.2373 19.1121 15.5671 19.2792 15.8636 19.4971C16.1642 19.7225 16.4125 20.0118 16.5909 20.3448C16.7646 20.6818 16.8592 21.0549 16.8676 21.435C16.8791 21.8072 16.8206 22.1783 16.6951 22.5284C16.6333 22.6999 16.5566 22.8655 16.4657 23.0231C16.3739 23.186 16.2648 23.3381 16.1402 23.4767C16.0979 23.524 16.054 23.5718 16.0084 23.6202C15.9604 23.6711 15.9093 23.719 15.8555 23.7636C15.7566 23.8498 15.6534 23.9307 15.5463 24.0061C15.491 24.0456 15.4389 24.0819 15.3739 24.1199C15.3088 24.1578 15.2551 24.1875 15.1981 24.2155C15.0826 24.2765 14.9638 24.3326 14.8434 24.3804C14.3483 24.5879 13.8171 24.6928 13.2814 24.6888C12.8772 24.6888 12.4756 24.6231 12.0919 24.4942C11.9036 24.4299 11.7194 24.3539 11.5403 24.2666C11.4525 24.2238 11.3646 24.1792 11.2816 24.1331C11.1925 24.0828 11.1062 24.0278 11.0229 23.9681C10.8456 23.8461 10.6861 23.7191 10.5348 23.5888C10.3721 23.4516 10.2188 23.3034 10.0759 23.1452C9.79687 22.8261 9.55952 22.4719 9.36975 22.0913L9.85789 22.2794C9.49341 22.469 9.13057 22.6537 8.76609 22.8203C8.46182 22.9621 8.17218 23.0677 7.88581 23.1864L8.07619 22.7626C8.07619 22.7461 8.07619 22.7626 8.07619 22.7857L8.10059 22.8417L8.15755 22.9654L8.26493 23.1732C8.2991 23.2375 8.33652 23.3035 8.37558 23.3695C8.4553 23.4998 8.53829 23.6284 8.63104 23.757L8.77097 23.95C8.8149 24.0094 8.85884 24.0621 8.90928 24.1149C9.00853 24.2304 9.11755 24.3442 9.2347 24.4563C9.29165 24.5124 9.34698 24.5685 9.39742 24.6212L9.57314 24.7647C9.68867 24.862 9.80419 24.956 9.91809 25.05C10.1451 25.2134 10.3845 25.3585 10.634 25.4838C10.7991 25.5853 10.9703 25.6761 11.1466 25.7559C11.2963 25.807 11.4281 25.8004 11.5924 25.8515C12.287 26.0597 13.0129 26.1396 13.7353 26.0874C14.4584 26.0351 15.1645 25.8414 15.8148 25.5167C15.9287 25.459 16.0394 25.398 16.1402 25.332L16.303 25.2265C16.3501 25.1951 16.3989 25.1589 16.4478 25.1226C16.6516 24.9596 16.8471 24.7862 17.0335 24.6031L17.0091 24.6278C17.1698 24.4537 17.3177 24.2679 17.4517 24.072C17.9658 23.3144 18.2352 22.4138 18.223 21.4943C18.2205 20.7901 18.0293 20.0998 17.6697 19.4971C17.6095 19.3965 17.5412 19.2893 17.4777 19.2003L17.4289 19.1327L17.3801 19.0716C17.3411 19.0255 17.302 18.9809 17.2613 18.9364C17.1816 18.8474 17.0986 18.7616 17.0091 18.6775C16.9272 18.5979 16.8414 18.5225 16.752 18.4515C16.5589 18.3046 16.3562 18.1713 16.1451 18.0524C16.0464 17.9954 15.9449 17.9437 15.8408 17.8974C15.7324 17.8501 15.6185 17.8056 15.4991 17.7638C15.382 17.7209 15.2616 17.6814 15.1412 17.6434L14.9785 17.594L14.7979 17.5544C14.269 17.434 13.7435 17.3053 13.2228 17.1586C12.6983 17.0142 12.1823 16.8402 11.677 16.6374C11.3318 16.5007 11.004 16.3224 10.7007 16.1064L10.5901 16.0206L10.4827 15.9348C10.3991 15.8656 10.3208 15.7901 10.2484 15.7089C10.1007 15.5408 9.98436 15.3469 9.90508 15.1366C9.83214 14.9398 9.7888 14.733 9.77653 14.5231C9.77653 14.4225 9.77653 14.3236 9.77653 14.2494C9.77818 14.1551 9.7847 14.0609 9.79606 13.9673C9.8409 13.6121 9.9513 13.2686 10.1215 12.9547L10.102 12.9993C10.1747 12.8337 10.27 12.6794 10.3851 12.5408C10.4729 12.4286 10.5478 12.3363 10.6373 12.2472L10.6536 12.2307C10.9588 11.9439 11.3113 11.7134 11.6949 11.5496C12.0481 11.4025 12.4201 11.3069 12.7997 11.2659C13.1502 11.228 13.5037 11.228 13.8541 11.2659C14.1954 11.3032 14.5303 11.3864 14.8499 11.5133C15.2446 11.6701 15.6104 11.8931 15.932 12.173C16.0133 12.2439 16.0947 12.3148 16.1646 12.394C16.2415 12.4692 16.3138 12.5491 16.3811 12.6331C16.4461 12.7123 16.5112 12.7981 16.5763 12.8838C16.6518 12.9867 16.7167 13.0973 16.7699 13.2137L16.2183 13.0108L18.1709 12.0345L17.9952 12.5985C17.9317 12.4946 17.8699 12.3891 17.8048 12.2852L17.7104 12.1202C17.6762 12.0675 17.6453 12.0246 17.6095 11.9751C17.4663 11.7838 17.2971 11.5875 17.1214 11.3962L17.1442 11.4193C16.9587 11.2445 16.7618 11.0614 16.5844 10.9246C16.3832 10.7717 16.1735 10.6308 15.9564 10.5024C15.7408 10.3799 15.5168 10.2735 15.286 10.1841C15.0514 10.0921 14.8111 10.0155 14.5668 9.95484C14.2918 9.83485 14.0078 9.73723 13.7174 9.66292C13.4425 9.58376 13.2407 9.498 13.3644 9.37596C13.6231 9.32864 13.887 9.31809 14.1486 9.34463C14.5311 9.37691 14.9086 9.45496 15.273 9.57716C15.642 9.69761 15.9975 9.8568 16.3339 10.0521C16.6349 10.2302 16.8676 10.3935 17.0221 10.4941C17.2157 10.6312 17.398 10.784 17.5672 10.951V10.9592C17.7427 11.1581 17.9057 11.368 18.0554 11.5875C18.1308 11.6977 18.1998 11.8122 18.262 11.9306C18.3255 12.046 18.3889 12.1598 18.4556 12.2703L18.4784 12.3082L18.5679 12.4583L18.4052 12.5375C17.7462 12.8673 17.1035 13.1972 16.4526 13.527L16.2899 13.6095L16.2037 13.4446C16.0885 13.2481 15.9497 13.067 15.7904 12.9053C15.6292 12.7382 15.4514 12.5885 15.26 12.4583C14.8801 12.2001 14.4482 12.031 13.9957 11.9636C13.5414 11.9019 13.0802 11.9164 12.6305 12.0064C12.1876 12.0903 11.7686 12.2728 11.4037 12.5408C11.3102 12.61 11.2206 12.6843 11.1352 12.7634L11.1498 12.7486C11.0668 12.8376 10.9871 12.9283 10.9171 13.0191C10.8531 13.0969 10.7985 13.1821 10.7544 13.273L10.7447 13.2945C10.6273 13.5061 10.5464 13.7364 10.5055 13.9756C10.4855 14.0971 10.4757 14.2202 10.4762 14.3434C10.4735 14.4606 10.4833 14.5779 10.5055 14.693C10.5487 14.9153 10.6577 15.1189 10.8179 15.2768C10.907 15.36 11.001 15.4377 11.0994 15.5094C11.1977 15.5821 11.301 15.6477 11.4085 15.7056C11.7279 15.8734 12.0611 16.0124 12.4043 16.1212C12.7493 16.2367 13.1008 16.3356 13.4522 16.4263C13.8037 16.517 14.16 16.5912 14.5147 16.672L15.0517 16.7809C15.2469 16.8188 15.4243 16.8766 15.6049 16.9293C15.7855 16.9821 15.9645 17.0464 16.1419 17.1173C16.3234 17.1908 16.5001 17.2762 16.6707 17.373C16.8385 17.4672 17.0014 17.5701 17.1588 17.6814C17.2431 17.7376 17.324 17.7987 17.4013 17.8644C17.4761 17.9271 17.5493 17.9914 17.6209 18.059C17.7653 18.193 17.9022 18.3351 18.031 18.4845C18.1621 18.6399 18.2812 18.8054 18.3873 18.9793C18.6037 19.3238 18.7738 19.6959 18.8933 20.0859C19.071 20.6873 19.1296 21.3184 19.0658 21.9429C19.0037 22.5648 18.8335 23.1706 18.563 23.7323C18.4384 23.9938 18.296 24.2462 18.1367 24.4876C17.9709 24.7321 17.7853 24.9621 17.5819 25.1754L17.5705 25.1853C17.3167 25.4318 17.0447 25.6584 16.7569 25.8631C16.4594 26.0598 16.1452 26.2293 15.8181 26.3694C15.1677 26.6523 14.4765 26.8266 13.7711 26.8856C13.4464 26.9127 13.1202 26.9171 12.7949 26.8988C12.4701 26.8812 12.1476 26.8332 11.8316 26.7553C11.5368 26.6647 11.2481 26.5545 10.9676 26.4255C10.5081 26.2402 10.0686 26.0076 9.65612 25.7311C9.60406 25.6949 9.54873 25.6602 9.49341 25.6206L9.34698 25.4986L9.05897 25.2545C8.96025 25.1762 8.86626 25.0919 8.77748 25.0022C8.69287 24.9164 8.61476 24.8373 8.52527 24.74C8.3975 24.6033 8.27797 24.4591 8.16731 24.3079C8.06317 24.166 7.96228 24.0209 7.86628 23.8725C7.77028 23.7241 7.67916 23.5723 7.60106 23.4206C7.56364 23.348 7.52459 23.2755 7.48879 23.2029L7.43184 23.0908L7.40418 23.0281C7.39442 23.0034 7.38465 22.9836 7.36838 22.9324L7.27563 22.6372L7.56201 22.4987L9.51457 21.557L9.85952 21.3921L10.0222 21.7533C10.153 22.0306 10.3123 22.2931 10.4973 22.5366C10.5827 22.6542 10.6774 22.7645 10.7805 22.8665L10.8602 22.9473L10.9367 23.0149L11.1124 23.165C11.2219 23.2572 11.3378 23.3415 11.459 23.4173C11.5062 23.447 11.5778 23.4833 11.6429 23.5179C11.7079 23.5525 11.773 23.5806 11.8397 23.6103C12.1027 23.7254 12.3787 23.8074 12.6614 23.8543C12.8021 23.8764 12.9439 23.8902 13.0861 23.8956C13.1593 23.8956 13.2244 23.8956 13.3074 23.8956C13.3904 23.8956 13.4506 23.8956 13.5222 23.8956C13.8084 23.877 14.0911 23.8216 14.3634 23.7307C14.5014 23.6835 14.6367 23.6284 14.7686 23.5657C14.832 23.536 14.9036 23.4998 14.9606 23.4684L15.0061 23.4453L15.0435 23.4223L15.1298 23.3645C15.1884 23.325 15.2453 23.2804 15.3023 23.2359C15.3592 23.1914 15.4276 23.132 15.4552 23.104C15.5556 23.0004 15.6491 22.8903 15.7351 22.7741L15.7871 22.6966C15.8038 22.6716 15.819 22.6458 15.8327 22.6191C15.8669 22.5614 15.8962 22.5003 15.9255 22.441C15.9803 22.3214 16.0265 22.1979 16.0638 22.0716C16.1341 21.8265 16.1622 21.571 16.1467 21.3162C16.1362 21.0736 16.0768 20.8358 15.9722 20.6174C15.8675 20.399 15.7198 20.2047 15.5382 20.0463C15.4778 19.9866 15.413 19.9315 15.3446 19.8814C15.2639 19.8222 15.1802 19.7671 15.094 19.7165C14.9356 19.6269 14.7681 19.5551 14.5945 19.5021C14.3557 19.4318 14.1127 19.3767 13.8671 19.3372C13.6003 19.286 13.3367 19.23 13.0731 19.1722C12.5334 19.0611 12.0001 18.9207 11.4753 18.7517C11.095 18.6266 10.7242 18.4739 10.3656 18.2949C10.0046 18.1142 9.65992 17.9017 9.33559 17.6599C8.65258 17.1514 8.11472 16.4686 7.77679 15.6809C7.74625 15.5724 7.72181 15.4623 7.70357 15.351C7.67751 15.2191 7.65851 15.0859 7.64662 14.9519C7.62124 14.6435 7.62124 14.3335 7.64662 14.0251C7.69951 13.3884 7.8522 12.7643 8.09896 12.1763C8.26167 11.797 8.37232 11.2791 8.81164 10.8734C8.88324 10.8108 8.81165 10.9559 8.94833 10.8058C9.01069 10.6852 9.08957 10.5742 9.18263 10.476C9.25748 10.4051 9.33558 10.3325 9.42019 10.2632C9.45924 10.2286 9.51131 10.1857 9.55524 10.1527L9.68704 10.0554C9.87388 9.91608 10.0678 9.78671 10.2679 9.66787C10.4832 9.5438 10.706 9.43364 10.935 9.33802C11.0489 9.2902 11.1628 9.24403 11.2767 9.20115C11.3906 9.15827 11.5176 9.11374 11.6315 9.07581C11.9354 9.09587 12.2403 9.09587 12.5443 9.07581C12.8697 9.07581 13.1789 9.10879 13.2732 9.1995C13.3676 9.2902 13.2163 9.41225 12.925 9.5112C12.6338 9.61015 12.2189 9.72559 11.8137 9.85588C11.3682 9.98113 10.9365 10.1519 10.525 10.3655C10.2783 10.5045 10.0422 10.6622 9.81884 10.8372C9.60012 11.0168 9.40053 11.2191 9.22331 11.4408C8.97558 11.773 8.77612 12.1396 8.63104 12.5292C8.48459 12.9844 8.37721 13.4 8.26656 13.7826Z" fill="black"/>
<path fill-rule="evenodd" clip-rule="evenodd" d="M22.1481 23.5129C22.1123 22.9522 22.799 21.6658 22.9975 20.9896C23.0431 20.8247 23.0431 20.673 23.0837 20.5344C23.4482 19.3223 23.8648 18.148 24.2732 16.9655C24.4213 16.5368 24.5221 16.0865 24.6735 15.6462C24.7841 15.3163 24.9501 14.9865 25.051 14.6715C25.2137 14.1355 25.3015 13.5632 25.4838 13.052C25.5521 12.859 25.6563 12.7007 25.7181 12.5193C25.915 11.9553 26.0907 11.3368 26.2437 10.8058C26.2713 10.7118 26.3364 10.6408 26.3608 10.5386C26.3852 10.4363 26.351 10.3852 26.3755 10.3011C26.4194 10.1642 26.4633 10.0257 26.5105 9.88716L26.9336 10.4908L25.6318 10.4825L26.0484 10.1824C26.0012 10.3225 25.9557 10.4627 25.9101 10.6013C25.7994 10.9575 25.7018 11.3269 25.5847 11.6798C25.0591 13.3587 24.4213 15.3081 23.7281 17.0892C23.2286 18.3789 22.7225 19.6653 22.3027 20.7851C21.8146 22.0847 21.3606 23.4123 20.8155 24.8323C20.6365 25.1225 20.4038 25.6272 20.2395 25.6668C20.2232 25.459 20.6577 24.3029 20.7097 24.0275C20.8132 23.6807 20.9366 23.3404 21.0791 23.0082C21.5119 21.7779 21.7609 20.635 22.1807 19.3932C22.4085 18.7335 22.6916 18.0623 22.9145 17.4257C23.388 16.0865 23.676 14.7869 24.1056 13.4198C24.2683 12.8953 24.4863 12.3791 24.667 11.8579C24.8882 11.2164 25.0884 10.5683 25.2934 9.92013L25.3682 9.68595H25.6253L26.2762 9.67275L26.9271 9.65626L27.4624 9.64307L27.285 10.1675C27.259 10.245 27.2362 10.3093 27.2134 10.3654C27.1597 10.5073 27.0833 10.5947 27.0328 10.7348C26.888 11.1389 26.7595 11.5858 26.6228 11.9998C25.9947 13.898 25.5163 15.5373 24.8899 17.3366C24.6962 17.8957 24.4961 18.4102 24.2878 18.9083C24.2179 19.0732 24.104 19.2942 24.0535 19.441C23.8908 19.8929 23.8029 20.4008 23.6451 20.8874C23.4222 21.5817 23.1163 22.2067 23.0414 22.939C22.8077 23.3865 22.6143 23.8546 22.4638 24.3375C22.4199 24.5024 22.5012 24.763 22.3532 24.9675C22.3271 25.0005 22.3027 24.923 22.2783 25.0054C22.2685 25.0417 22.3157 25.0829 22.2783 25.1868C22.2165 25.3715 22.1416 25.581 22.0733 25.8053L21.9675 26.145L21.5884 26.1549C21.3476 26.1549 21.0856 26.1549 20.8139 26.1549C20.6365 25.957 20.0947 25.8845 20.1516 25.7674C20.1874 25.6948 20.3567 25.6453 20.5503 25.5843C20.7439 25.5233 20.9587 25.4524 21.1344 25.4194C21.2851 25.3989 21.4378 25.3989 21.5884 25.4194L21.3769 25.5728C21.494 25.299 21.6372 24.9807 21.7348 24.6838C21.8601 24.3095 21.8943 23.8262 22.1481 23.5129Z" fill="black"/>
<path d="M35.3541 42.5964C45.0127 42.5964 52.8426 34.6603 52.8426 24.8707C52.8426 15.081 45.0127 7.14496 35.3541 7.14496C25.6956 7.14496 17.8657 15.081 17.8657 24.8707C17.8657 34.6603 25.6956 42.5964 35.3541 42.5964Z" fill="#F4BB47"/>
<path d="M35.0888 39.2217C43.0553 39.2217 49.5134 32.6761 49.5134 24.6015C49.5134 16.527 43.0553 9.98132 35.0888 9.98132C27.1224 9.98132 20.6643 16.527 20.6643 24.6015C20.6643 32.6761 27.1224 39.2217 35.0888 39.2217Z" fill="#FFCB00"/>
<path fill-rule="evenodd" clip-rule="evenodd" d="M49.6921 35.1092C49.4228 35.6064 49.1027 36.0735 48.737 36.5028L48.3904 36.9134L47.9982 37.3241L47.7965 37.5352L47.5866 37.738C47.4401 37.8732 47.2953 38.0118 47.1456 38.1487C46.5447 38.6736 45.9115 39.1594 45.25 39.6033C45.0971 39.7154 44.9343 39.8061 44.783 39.9034C44.6317 40.0007 44.4836 40.0964 44.3372 40.1805C44.0443 40.3454 43.7807 40.5103 43.5383 40.6406C43.2958 40.7709 43.1006 40.8913 42.8874 41.0117C42.6743 41.1321 42.4725 41.2343 42.2659 41.3316C38.6321 42.9489 34.5645 43.2693 30.7278 42.2403C28.2357 41.6442 25.9214 40.4496 23.9801 38.7572C23.2938 38.1934 22.6392 37.5911 22.0194 36.953C21.414 36.316 20.8631 35.6281 20.3728 34.8964C20.2019 34.6177 20.0376 34.3538 19.896 34.0817C19.7544 33.8096 19.6113 33.549 19.4762 33.2736C18.5911 31.5851 17.9624 29.7709 17.6115 27.8922C17.5464 27.5855 17.5578 27.2952 17.5057 26.967C17.4488 26.7289 17.4049 26.4877 17.374 26.2447C17.0122 22.0461 18.106 17.851 20.4671 14.3817C22.8282 10.9124 26.3088 8.38605 30.3097 7.23759C31.835 6.80329 33.4115 6.58136 34.9958 6.57791C37.2025 6.56877 39.3922 6.96839 41.4572 7.75709C45.5003 9.32226 48.8646 12.2904 50.9515 16.1334C52.0744 18.2072 52.7712 20.4899 53.0001 22.844C53.0001 23.0403 52.9789 23.2827 52.9708 23.5301C52.9708 23.6538 52.9594 23.7775 52.9545 23.8995C52.9496 24.0216 52.9285 24.137 52.9138 24.2442C52.8552 24.6763 52.7771 24.96 52.6486 24.7835C52.6291 24.6648 52.6112 24.5064 52.5949 24.3151C52.5786 24.1238 52.5689 23.9028 52.5396 23.6554C52.5103 23.4081 52.4989 23.1491 52.4582 22.877C52.4175 22.6049 52.3899 22.3212 52.3411 22.0409C52.2923 21.7605 52.2451 21.4768 52.1881 21.2064L52.0108 20.4378C51.9131 20.066 51.7969 19.6994 51.6626 19.3395C51.2753 18.3285 50.9271 17.2928 50.4292 16.361C49.4876 14.629 48.2477 13.0818 46.7681 11.7927C45.298 10.5176 43.6406 9.48267 41.8558 8.72518C39.9559 7.89606 37.9244 7.42011 35.8582 7.32005C33.7434 7.23324 31.6324 7.56948 29.6458 8.30958C27.6615 9.04844 25.8241 10.1421 24.2209 11.5387C22.964 12.6091 21.8581 13.8493 20.9341 15.2247C20.191 16.3618 19.5857 17.5856 19.1313 18.8694C18.6856 20.1544 18.3865 21.4868 18.2396 22.8407C18.153 23.7229 18.1247 24.61 18.155 25.496C18.155 25.7268 18.155 25.9247 18.1631 26.1227C18.1622 26.3319 18.172 26.5411 18.1924 26.7493C18.6771 31.0315 20.7277 34.974 23.9394 37.799C26.0494 39.6599 28.5721 40.976 31.2925 41.6351C31.5089 41.6829 31.722 41.7439 31.9433 41.7819L32.5942 41.9023C32.8073 41.9385 33.0205 41.9616 33.232 41.993C33.3361 42.0061 33.4419 42.0243 33.5477 42.0358L33.8633 42.0639C34.6868 42.1443 35.5148 42.1674 36.3415 42.1331C36.9286 42.1164 37.5142 42.0652 38.0955 41.9798L38.6357 41.8792C38.8163 41.8445 38.9937 41.7934 39.1759 41.7489C39.5388 41.6664 39.8984 41.5427 40.2612 41.4306C40.9888 41.1805 41.7016 40.8881 42.396 40.5549C43.3771 40.0979 44.3145 39.5503 45.1963 38.9188C46.0711 38.2922 46.8606 37.5514 47.5443 36.7155L47.842 36.4252C47.9462 36.3114 48.0617 36.1878 48.1854 36.0558C48.4376 35.7952 48.6882 35.4753 48.9566 35.1488C49.4566 34.4961 49.8983 33.7996 50.2762 33.0675C50.3901 32.8217 50.4894 32.5397 50.6017 32.2429C50.6521 32.0895 50.709 31.9328 50.7741 31.7745C50.8067 31.6953 50.8425 31.6096 50.8815 31.5353C50.9206 31.4611 50.9547 31.3704 50.9954 31.2896C51.0524 31.1791 51.0263 31.382 51.1175 31.1379C51.1482 30.9667 51.1895 30.7976 51.2411 30.6316C51.6572 29.4771 51.9251 28.2732 52.0384 27.0495C52.1106 26.8832 52.1652 26.7096 52.2011 26.5317C52.2418 26.3255 52.2792 26.0946 52.3167 25.872C52.3817 25.4267 52.4192 25.0144 52.5152 24.8824C52.6307 24.7175 52.7283 24.9583 52.7983 25.4085C52.8146 25.5207 52.8325 25.646 52.8422 25.7829C52.852 25.9198 52.8536 26.0616 52.8552 26.2134C52.8569 26.3651 52.8552 26.5251 52.8552 26.6867C52.8552 26.8483 52.8308 27.0165 52.8146 27.1814C52.8015 27.3167 52.7869 27.4668 52.7625 27.6284C52.7381 27.79 52.7023 27.9582 52.6681 28.1396C52.6079 28.5041 52.494 28.8933 52.3931 29.3056C52.1492 30.1412 51.8619 30.9631 51.5324 31.7679L51.176 32.6189C51.0377 32.9075 50.9076 33.2142 50.7514 33.5078C50.4637 34.0832 50.108 34.621 49.6921 35.1092Z" fill="black"/>
<path fill-rule="evenodd" clip-rule="evenodd" d="M47.4589 33.0603C47.1709 33.6788 46.3671 34.6964 45.3615 35.5803C44.8631 36.0128 44.3381 36.4127 43.7897 36.7777C43.5277 36.9508 43.2723 37.1075 43.0347 37.2526C42.7972 37.3978 42.5726 37.5247 42.3725 37.6319C42.1723 37.7391 42.0129 37.843 41.8437 37.9436C41.6744 38.0443 41.502 38.1333 41.3327 38.2141C38.3278 39.5583 34.9609 39.8252 31.7864 38.9711C29.7203 38.4885 27.8027 37.4992 26.2021 36.0899C25.6343 35.6245 25.0912 35.1291 24.5749 34.6056C24.0704 34.0809 23.612 33.5125 23.2049 32.907C23.0633 32.6744 22.9283 32.4551 22.8144 32.2291C22.7005 32.0032 22.5817 31.7872 22.4694 31.5579C21.7365 30.1599 21.2128 28.6592 20.9155 27.1051C20.8602 26.8511 20.8765 26.6103 20.8325 26.3365C20.7813 26.1406 20.7411 25.9418 20.7121 25.7412C20.5576 23.7925 20.7786 21.832 21.363 19.9689C21.657 18.9854 22.0507 18.0353 22.5378 17.134C23.7806 14.8601 25.5813 12.9498 27.7657 11.5877C30.0386 10.1778 32.6492 9.42602 35.314 9.41404C37.1446 9.40988 38.9606 9.74524 40.6721 10.4036C44.0179 11.7092 46.8012 14.1705 48.5312 17.3533C49.4611 19.0721 50.0363 20.9648 50.2218 22.9161C50.2218 23.081 50.1941 23.2806 50.1843 23.4851C50.1843 23.5873 50.1681 23.6896 50.1616 23.7902C50.155 23.8908 50.1339 23.9881 50.1192 24.0771C50.059 24.4334 49.9793 24.6675 49.8524 24.5224C49.7775 24.1332 49.7418 23.203 49.5839 22.2696C49.54 22.0387 49.5042 21.8062 49.457 21.5835C49.4098 21.3609 49.3561 21.1498 49.3106 20.9519C49.2307 20.6459 49.134 20.3448 49.0209 20.0498C48.6955 19.2252 48.4221 18.3626 48.0121 17.5958C47.2385 16.1697 46.2151 14.8983 44.9922 13.8438C43.7795 12.8 42.415 11.9522 40.9471 11.3304C39.3868 10.6439 37.7173 10.2478 36.0185 10.1611C34.2788 10.0889 32.5424 10.3693 30.911 10.9857C28.0126 12.1072 25.5168 14.0913 23.7516 16.6771C23.1414 17.6117 22.6443 18.6172 22.2709 19.6721C21.9082 20.7282 21.6648 21.8226 21.5452 22.9342C21.476 23.6587 21.4537 24.387 21.4785 25.1145C21.4785 25.3058 21.4785 25.4674 21.4785 25.6307C21.4749 25.8024 21.4814 25.9743 21.498 26.1452C21.8989 29.6623 23.5867 32.899 26.2281 35.2159C27.9605 36.7399 30.0302 37.8177 32.2615 38.3576C32.9515 38.5288 33.6531 38.6479 34.3605 38.7138C35.0363 38.7811 35.7158 38.8026 36.3944 38.7781C36.8768 38.7686 37.3583 38.7295 37.836 38.661L38.2786 38.5786C38.4267 38.5506 38.5731 38.5077 38.7228 38.4697C39.0206 38.4005 39.3151 38.3048 39.6129 38.2042C40.2089 37.9951 40.7928 37.7523 41.362 37.4769C42.1673 37.1023 42.9369 36.6535 43.6612 36.1361C44.3794 35.6249 45.0235 35.0143 45.5747 34.322L45.8204 34.0862L46.1051 33.786C46.3134 33.5733 46.5217 33.3127 46.7429 33.0472C47.1626 32.5128 47.5309 31.939 47.8429 31.3336C47.9382 31.1094 48.0224 30.8804 48.0951 30.6476C48.1341 30.5206 48.1765 30.3919 48.2301 30.2616C48.2562 30.1957 48.2855 30.1314 48.318 30.0654C48.3506 29.9994 48.3782 29.9318 48.414 29.8658C48.4498 29.7999 48.4498 29.945 48.523 29.7438C48.5437 29.602 48.5747 29.462 48.6158 29.3249C48.9596 28.3798 49.1785 27.3927 49.2666 26.3893C49.3387 26.2563 49.3934 26.1144 49.4293 25.9671C49.4684 25.8022 49.5026 25.6092 49.5367 25.4278C49.5969 25.0634 49.6344 24.7236 49.7304 24.6164C49.8459 24.4828 49.9435 24.6774 50.0151 25.0502C50.0314 25.1425 50.0493 25.2464 50.0607 25.3586C50.0721 25.4707 50.0769 25.5911 50.0802 25.7164C50.0835 25.8418 50.0802 25.9737 50.0802 26.1073C50.0802 26.2409 50.0639 26.3761 50.0509 26.5114C50.0379 26.6466 50.0298 26.7488 50.0086 26.8808L49.9305 27.3046C49.8801 27.6048 49.7841 27.928 49.6994 28.2678C49.5009 28.9423 49.2422 29.658 48.9803 30.3012C48.8859 30.5222 48.7883 30.7581 48.689 31.0054C48.5897 31.2528 48.4693 31.5002 48.3424 31.7443C48.1068 32.2208 47.8097 32.6633 47.4589 33.0603Z" fill="black"/>
<path fill-rule="evenodd" clip-rule="evenodd" d="M25.5727 20.3605C25.5971 20.6326 25.602 21.0201 25.6703 21.4555C25.7409 21.9396 25.904 22.4052 26.1503 22.826C26.4196 23.267 26.7744 23.648 27.1933 23.9458C27.5531 24.2045 27.942 24.4188 28.3519 24.5841C28.6773 24.7094 28.9864 24.7622 29.2744 24.8496C29.9074 25.0393 30.5566 25.1992 31.1961 25.3444C31.5326 25.4042 31.8656 25.483 32.1935 25.5802C32.5434 25.6899 32.8732 25.857 33.1698 26.075C33.4704 26.3003 33.7187 26.5896 33.8971 26.9227C34.0707 27.2597 34.1654 27.6327 34.1737 28.0128C34.1853 28.3851 34.1268 28.7562 34.0012 29.1062C33.9395 29.2777 33.8627 29.4433 33.7718 29.601C33.6801 29.7638 33.5709 29.9159 33.4464 30.0545C33.4041 30.1018 33.3602 30.1496 33.3146 30.198C33.2665 30.2489 33.2155 30.2968 33.1616 30.3415C33.0628 30.4276 32.9596 30.5085 32.8525 30.5839C32.7972 30.6235 32.7451 30.6598 32.68 30.6977C32.6149 30.7356 32.5612 30.7653 32.5043 30.7933C32.3888 30.8544 32.27 30.9104 32.1496 30.9583C31.6544 31.1657 31.1233 31.2706 30.5875 31.2667C30.1833 31.2666 29.7818 31.2009 29.3981 31.0721C29.2098 31.0078 29.0256 30.9318 28.8465 30.8445C28.7586 30.8016 28.6708 30.7571 28.5878 30.7109C28.4987 30.6606 28.4123 30.6056 28.3291 30.546C28.1517 30.4239 27.9923 30.2969 27.8409 30.1666C27.6782 30.0295 27.5249 29.8813 27.3821 29.723C27.103 29.4039 26.8657 29.0497 26.6759 28.6692L27.164 28.8572C26.7996 29.0468 26.4367 29.2315 26.0722 29.3981C25.768 29.5399 25.4783 29.6455 25.192 29.7642L25.3823 29.3404C25.3823 29.3239 25.3823 29.3404 25.3823 29.3635L25.4067 29.4196L25.4637 29.5432L25.5711 29.751C25.6053 29.8154 25.6427 29.8813 25.6817 29.9473C25.7615 30.0776 25.8444 30.2062 25.9372 30.3349L26.0771 30.5278C26.1211 30.5872 26.165 30.64 26.2154 30.6927C26.3147 30.8082 26.4237 30.922 26.5409 31.0341C26.5978 31.0902 26.6531 31.1463 26.7036 31.1991L26.8793 31.3425C26.9948 31.4398 27.1103 31.5338 27.2242 31.6278C27.4513 31.7913 27.6907 31.9363 27.9402 32.0616C28.1052 32.1631 28.2764 32.254 28.4527 32.3337C28.6024 32.3848 28.7342 32.3782 28.8986 32.4294C29.5932 32.6375 30.319 32.7174 31.0415 32.6652C31.7645 32.613 32.4707 32.4192 33.121 32.0946C33.2349 32.0368 33.3455 31.9758 33.4464 31.9099L33.6091 31.8043C33.6563 31.773 33.7051 31.7367 33.7539 31.7004C33.9578 31.5375 34.1533 31.3641 34.3397 31.1809L34.3153 31.2056C34.4759 31.0315 34.6238 30.8458 34.7579 30.6499C35.2719 29.8922 35.5414 28.9916 35.5291 28.0722C35.5267 27.3679 35.3355 26.6776 34.9759 26.075C34.9157 25.9744 34.8473 25.8672 34.7839 25.7781L34.7351 25.7105L34.6863 25.6495C34.6472 25.6033 34.6082 25.5588 34.5675 25.5142C34.4877 25.4252 34.4048 25.3394 34.3153 25.2553C34.2333 25.1757 34.1475 25.1003 34.0582 25.0294C33.8651 24.8824 33.6623 24.7491 33.4513 24.6303C33.3526 24.5732 33.251 24.5215 33.147 24.4752C33.0385 24.428 32.9246 24.3834 32.8053 24.3416C32.6881 24.2988 32.5677 24.2592 32.4473 24.2213L32.2846 24.1718L32.104 24.1322C31.5752 24.0118 31.0496 23.8832 30.5289 23.7364C30.0045 23.592 29.4884 23.418 28.9832 23.2152C28.6379 23.0785 28.3102 22.9002 28.0069 22.6842L27.8962 22.5984L27.7889 22.5127C27.7052 22.4435 27.6269 22.3679 27.5546 22.2867C27.4068 22.1186 27.2905 21.9247 27.2112 21.7145C27.1383 21.5176 27.095 21.3108 27.0827 21.101C27.0827 21.0003 27.0827 20.9014 27.0827 20.8272C27.0843 20.7329 27.0908 20.6388 27.1022 20.5452C27.1471 20.1899 27.2575 19.8464 27.4276 19.5326L27.4081 19.5771C27.4808 19.4116 27.5761 19.2572 27.6912 19.1186C27.7791 19.0065 27.8539 18.9141 27.9434 18.825L27.9597 18.8086C28.265 18.5217 28.6174 18.2912 29.0011 18.1274C29.3542 17.9803 29.7262 17.8848 30.1059 17.8438C30.4564 17.8059 30.8098 17.8059 31.1603 17.8438C31.5016 17.881 31.8365 17.9642 32.1561 18.0911C32.5507 18.2479 32.9166 18.4709 33.2381 18.7508C33.3195 18.8217 33.4008 18.8927 33.4708 18.9718C33.5477 19.047 33.6199 19.1269 33.6872 19.211C33.7523 19.2901 33.8174 19.3759 33.8825 19.4616C33.958 19.5646 34.0229 19.6751 34.0761 19.7915L33.5245 19.5886L35.477 18.6123L35.3013 19.1763C35.2379 19.0724 35.176 18.9669 35.1109 18.863L35.0166 18.6981C34.9824 18.6453 34.9515 18.6024 34.9157 18.5529C34.7725 18.3616 34.6033 18.1654 34.4275 17.9741L34.4503 17.9971C34.2648 17.8223 34.068 17.6393 33.8906 17.5024C33.6894 17.3496 33.4797 17.2086 33.2625 17.0802C33.047 16.9577 32.8229 16.8514 32.5921 16.7619C32.3575 16.6699 32.1173 16.5933 31.873 16.5327C31.5979 16.4127 31.3139 16.3151 31.0236 16.2407C30.7486 16.1616 30.5468 16.0758 30.6705 15.9538C30.9292 15.9065 31.1932 15.8959 31.4548 15.9224C31.8373 15.9547 32.2147 16.0328 32.5791 16.155C32.9481 16.2754 33.3037 16.4346 33.64 16.63C33.941 16.8081 34.1737 16.9713 34.3283 17.0719C34.5219 17.209 34.7042 17.3618 34.8734 17.5288V17.537C35.0489 17.7359 35.2119 17.9458 35.3615 18.1654C35.437 18.2755 35.506 18.39 35.5682 18.5084C35.6316 18.6238 35.6951 18.7376 35.7618 18.8481L35.7846 18.8861L35.8741 19.0362L35.7114 19.1153C35.0524 19.4452 34.4096 19.775 33.7588 20.1048L33.5961 20.1873L33.5098 20.0224C33.3946 19.826 33.2558 19.6448 33.0966 19.4831C32.9353 19.3161 32.7576 19.1663 32.5661 19.0362C32.1863 18.7779 31.7543 18.6089 31.3018 18.5414C30.8475 18.4798 30.3863 18.4942 29.9367 18.5843C29.4937 18.6682 29.0747 18.8507 28.7098 19.1186C28.6164 19.1878 28.5267 19.2621 28.4413 19.3413L28.456 19.3264C28.373 19.4155 28.2933 19.5062 28.2233 19.5969C28.1593 19.6747 28.1047 19.7599 28.0606 19.8509L28.0508 19.8723C27.9334 20.0839 27.8525 20.3142 27.8116 20.5534C27.7916 20.6749 27.7818 20.798 27.7824 20.9212C27.7796 21.0385 27.7895 21.1557 27.8116 21.2708C27.8548 21.4931 27.9638 21.6967 28.124 21.8546C28.2132 21.9378 28.3072 22.0155 28.4055 22.0872C28.5039 22.1599 28.6072 22.2255 28.7147 22.2834C29.034 22.4512 29.3672 22.5903 29.7105 22.699C30.0555 22.8145 30.4069 22.9134 30.7584 23.0041C31.1098 23.0948 31.4662 23.1691 31.8209 23.2499L32.3578 23.3587C32.5531 23.3966 32.7304 23.4544 32.9111 23.5071C33.0917 23.5599 33.2707 23.6242 33.448 23.6952C33.6296 23.7686 33.8062 23.854 33.9768 23.9508C34.1447 24.045 34.3076 24.148 34.465 24.2592C34.5492 24.3154 34.6302 24.3765 34.7074 24.4422C34.7823 24.5049 34.8555 24.5692 34.9271 24.6369C35.0715 24.7708 35.2083 24.9129 35.3371 25.0624C35.4682 25.2178 35.5874 25.3832 35.6935 25.5571C35.9098 25.9016 36.08 26.2737 36.1995 26.6637C36.3771 27.2652 36.4357 27.8963 36.372 28.5207C36.3098 29.1426 36.1396 29.7484 35.8692 30.3101C35.7446 30.5717 35.6021 30.8241 35.4429 31.0655C35.2771 31.3099 35.0915 31.54 34.888 31.7532L34.8766 31.7631C34.6228 32.0097 34.3509 32.2362 34.0631 32.4409C33.7656 32.6376 33.4514 32.8071 33.1242 32.9472C32.4739 33.2301 31.7826 33.4045 31.0773 33.4634C30.7526 33.4905 30.4264 33.4949 30.101 33.4766C29.7762 33.4591 29.4538 33.411 29.1377 33.3331C28.8429 33.2425 28.5543 33.1323 28.2737 33.0033C27.8143 32.818 27.3748 32.5854 26.9623 32.309C26.9102 32.2727 26.8549 32.2381 26.7996 32.1985L26.6531 32.0764L26.3651 31.8323C26.2664 31.754 26.1724 31.6698 26.0836 31.58C25.999 31.4943 25.9209 31.4151 25.8314 31.3178C25.7037 31.1812 25.5841 31.0369 25.4735 30.8857C25.3693 30.7439 25.2684 30.5987 25.1724 30.4503C25.0764 30.3019 24.9853 30.1502 24.9072 29.9984C24.8698 29.9259 24.8307 29.8533 24.7949 29.7807L24.738 29.6686L24.7103 29.6059C24.7006 29.5812 24.6908 29.5614 24.6745 29.5103L24.5818 29.2151L24.8682 29.0765L26.8207 28.1348L27.1657 27.9699L27.3284 28.3311C27.4592 28.6084 27.6184 28.871 27.8035 29.1145C27.8888 29.232 27.9835 29.3424 28.0866 29.4443L28.1664 29.5251L28.2428 29.5927L28.4186 29.7428C28.5281 29.835 28.6439 29.9194 28.7651 29.9951C28.8123 30.0248 28.8839 30.0611 28.949 30.0957C29.0141 30.1304 29.0792 30.1584 29.1459 30.1881C29.4089 30.3033 29.6849 30.3852 29.9676 30.4322C30.1082 30.4542 30.25 30.468 30.3923 30.4734C30.4655 30.4734 30.5306 30.4734 30.6136 30.4734C30.6965 30.4734 30.7567 30.4734 30.8283 30.4734C31.1145 30.4549 31.3972 30.3995 31.6696 30.3085C31.8076 30.2613 31.9429 30.2063 32.0747 30.1436C32.1382 30.1139 32.2098 30.0776 32.2667 30.0463L32.3123 30.0232L32.3497 30.0001L32.4359 29.9424C32.4945 29.9028 32.5515 29.8582 32.6084 29.8137C32.6654 29.7692 32.7337 29.7098 32.7614 29.6818C32.8618 29.5783 32.9553 29.4681 33.0412 29.3519L33.0933 29.2744C33.1099 29.2495 33.1251 29.2236 33.1389 29.1969C33.173 29.1392 33.2023 29.0782 33.2316 29.0188C33.2865 28.8992 33.3327 28.7757 33.3699 28.6494C33.4402 28.4043 33.4683 28.1488 33.4529 27.894C33.4424 27.6515 33.383 27.4137 33.2783 27.1952C33.1737 26.9768 33.026 26.7825 32.8444 26.6242C32.7839 26.5644 32.7192 26.5093 32.6507 26.4592C32.57 26.4 32.4864 26.3449 32.4001 26.2943C32.2418 26.2048 32.0743 26.1329 31.9006 26.0799C31.6618 26.0096 31.4189 25.9545 31.1733 25.915C30.9064 25.8639 30.6428 25.8078 30.3792 25.7501C29.8396 25.6389 29.3062 25.4986 28.7814 25.3295C28.4012 25.2044 28.0303 25.0517 27.6717 24.8727C27.3107 24.692 26.9661 24.4795 26.6417 24.2377C25.9587 23.7293 25.4209 23.0464 25.0829 22.2587C25.0524 22.1502 25.028 22.0401 25.0097 21.9289C24.9837 21.797 24.9647 21.6637 24.9528 21.5298C24.9274 21.2213 24.9274 20.9113 24.9528 20.6029C25.0057 19.9662 25.1584 19.3421 25.4051 18.7541C25.5678 18.3748 25.6785 17.857 26.1178 17.4513C26.1894 17.3886 26.1178 17.5337 26.2545 17.3836C26.3168 17.263 26.3957 17.152 26.4888 17.0538C26.5636 16.9829 26.6417 16.9103 26.7263 16.8411C26.7654 16.8064 26.8175 16.7635 26.8614 16.7306L26.9932 16.6333C27.18 16.4939 27.3739 16.3645 27.5741 16.2457C27.7894 16.1216 28.0122 16.0115 28.2412 15.9158C28.3551 15.868 28.469 15.8218 28.5829 15.779C28.6968 15.7361 28.8237 15.6916 28.9376 15.6536C29.2416 15.6737 29.5465 15.6737 29.8504 15.6536C30.1759 15.6536 30.485 15.6866 30.5794 15.7773C30.6738 15.868 30.5224 15.9901 30.2312 16.089C29.9399 16.188 29.525 16.3034 29.1199 16.4337C28.6744 16.559 28.2426 16.7297 27.8312 16.9433C27.5844 17.0823 27.3484 17.24 27.125 17.415C26.9063 17.5946 26.7067 17.7969 26.5295 18.0186C26.2817 18.3509 26.0823 18.7174 25.9372 19.1071C25.7907 19.5622 25.6834 19.9778 25.5727 20.3605Z" fill="black"/>
<path fill-rule="evenodd" clip-rule="evenodd" d="M39.4543 30.0907C39.4185 29.53 40.1052 28.2436 40.3037 27.5674C40.3492 27.4025 40.3492 27.2508 40.3899 27.1123C40.7544 25.9001 41.1709 24.7259 41.5793 23.5434C41.7274 23.1146 41.8283 22.6644 41.9796 22.224C42.0903 21.8942 42.2562 21.5644 42.3571 21.2494C42.5198 20.7134 42.6077 20.1411 42.7899 19.6299C42.8583 19.4369 42.9624 19.2786 43.0242 19.0972C43.2211 18.5331 43.3969 17.9147 43.5498 17.3836C43.5775 17.2896 43.6426 17.2187 43.667 17.1165C43.6914 17.0142 43.6572 16.9631 43.6816 16.879C43.7255 16.7421 43.7695 16.6036 43.8167 16.465L44.2397 17.0686L42.938 17.0604L43.3546 16.7602C43.3074 16.9004 43.2618 17.0406 43.2162 17.1791C43.1056 17.5354 43.008 17.9048 42.8908 18.2577C42.3652 19.9366 41.7274 21.886 41.0343 23.6671C40.5347 24.9568 40.0287 26.2431 39.6089 27.3629C39.1207 28.6625 38.6668 29.9901 38.1217 31.4101C37.9427 31.7003 37.71 32.205 37.5457 32.2446C37.5294 32.0368 37.9638 30.8807 38.0159 30.6053C38.1194 30.2586 38.2427 29.9182 38.3853 29.5861C38.8181 28.3558 39.067 27.2129 39.4868 25.971C39.7146 25.3113 39.9978 24.6401 40.2207 24.0035C40.6942 22.6644 40.9822 21.3648 41.4117 19.9976C41.5745 19.4732 41.7925 18.957 41.9731 18.4358C42.1944 17.7943 42.3945 17.1461 42.5996 16.498L42.6744 16.2638H42.9315L43.5824 16.2506L44.2332 16.2341L44.7685 16.2209L44.5912 16.7454C44.5651 16.8229 44.5424 16.8872 44.5196 16.9433C44.4659 17.0851 44.3894 17.1725 44.339 17.3127C44.1942 17.7168 44.0656 18.1637 43.9289 18.5777C43.3009 20.4759 42.8225 22.1152 42.196 23.9145C42.0024 24.4735 41.8023 24.9881 41.594 25.4861C41.524 25.6511 41.4101 25.8721 41.3597 26.0188C41.197 26.4707 41.1091 26.9787 40.9513 27.4652C40.7283 28.1595 40.4224 28.7845 40.3476 29.5168C40.1138 29.9644 39.9205 30.4324 39.77 30.9153C39.726 31.0802 39.8074 31.3408 39.6593 31.5453C39.6333 31.5783 39.6089 31.5008 39.5845 31.5832C39.5747 31.6195 39.6219 31.6608 39.5845 31.7647C39.5226 31.9494 39.4478 32.1588 39.3794 32.3831L39.2737 32.7228L38.8946 32.7327C38.6537 32.7327 38.3918 32.7327 38.12 32.7327C37.9427 32.5348 37.4008 32.4623 37.4578 32.3452C37.4936 32.2726 37.6628 32.2231 37.8564 32.1621C38.0501 32.1011 38.2649 32.0302 38.4406 31.9972C38.5912 31.9767 38.7439 31.9767 38.8946 31.9972L38.683 32.1506C38.8002 31.8768 38.9434 31.5585 39.041 31.2617C39.1663 30.8873 39.2005 30.4041 39.4543 30.0907Z" fill="black"/>
</svg>
